<svg width="1440" height="81" viewBox="0 0 1440 81" fill="none" xmlns="http://www.w3.org/2000/svg">
<g clip-path="url(#clip0_10_117)">
<path d="M1066.56 0.66634C1071.84 -0.43199 1074.89 -0.160488 1075.68 1.48084C1070.36 2.57917 1067.3 2.30767 1066.56 0.66634Z" fill="#FF9600"/>
<path d="M951.578 12.9455C960.429 11.8886 969.993 11.3957 979.593 11.5016C973.004 14.6979 958.604 14.2536 947.607 14.9817L951.578 12.9455Z" fill="#FF9600"/>
<path d="M1098.15 17.1537C1103.39 13.6119 1119.53 14.7966 1130.23 14.6856C1124.07 17.9312 1108.84 16.8452 1098.15 17.1537Z" fill="#FF9600"/>
<path d="M771.011 24.1263C772.669 18.9678 794.924 17.8325 809.455 19.0296C800.509 22.5097 784.713 23.1143 771.011 24.1263Z" fill="#FF9600"/>
<path d="M1029.08 25.4345C1032.48 25.0182 1036.17 24.819 1039.88 24.851C1043.59 24.883 1047.23 25.1454 1050.55 25.6196C1038.85 27.7299 1024.97 28.2605 1011.49 28.532C1012.28 25.9528 1022.4 26.0638 1028.95 25.4345H1029.08Z" fill="#FF9600"/>
<path d="M720 28.9884C721.135 33.0362 732.742 26.9769 720 28.9884V28.9884Z" fill="#FF9600"/>
<path d="M916.887 33.9618C921.522 32.4869 927.207 31.3057 933.569 30.4954C939.931 29.6851 946.826 29.2641 953.804 29.26C948.609 30.6535 943.131 31.9598 937.396 33.1721C939.229 33.9125 941.105 34.6406 942.982 35.3811L936.218 38.7871C948.039 38.8351 959.815 38.3647 971.127 37.3926C970.822 37.9232 970.124 38.9722 969.818 39.5029L981.033 40.5395C958.545 43.6728 935.504 46.4779 912 48.9436C909.6 50.8194 916.145 51.5228 921.12 52.0905C935.345 51.2143 950.007 51.893 963.971 50.5849V47.3146L977.629 47.1171C977.629 47.7712 977.629 49.0793 977.324 49.7457C990.982 48.3512 1005.43 47.6972 1019.13 46.3644C1031.87 44.9328 1047.45 45.3277 1057.48 42.3289C1057.18 43.2051 1056.65 44.9575 1056.39 45.8337C1061.93 46.0065 1067.52 46.1422 1073.11 46.2286C1073.32 44.686 1073.59 43.1558 1073.89 41.6132C1079.83 41.9957 1085.8 42.3906 1091.87 42.7362L1104.04 42.0698L1098.46 43.3038C1092.7 43.7975 1086.89 44.2541 1081 44.6367C1082.79 46.0065 1084.76 47.364 1086.85 48.7091L1077.82 48.4623L1078.17 52.2756C1091.69 52.2756 1105.18 52.2016 1118.66 52.0288L1116.92 54.0527C1124.68 54.7314 1128.04 56.854 1132.32 58.6064C1149.03 56.5825 1165.61 58.7299 1182.81 58.5201C1182.81 60.6427 1182.81 62.7529 1182.81 64.8756C1192.1 64.2955 1201.31 63.5798 1210.56 62.9257C1211.96 62.255 1213.85 61.6774 1216.11 61.2323C1218.37 60.7872 1220.94 60.4851 1223.65 60.3465C1227.8 59.495 1231.51 58.2239 1237.18 58.3473C1238.44 59.026 1241.06 60.3958 1242.37 61.0746C1251.75 61.4349 1260.71 62.402 1268.55 63.9006C1275.62 61.8891 1284.79 62.247 1293.73 62.7529C1295.3 63.1849 1298.36 63.987 1299.88 64.493C1307.74 64.493 1315.59 64.493 1323.45 64.493C1332.96 61.9508 1344.92 64.493 1355.21 65.1841L1358.84 68.5408L1370.88 69.2319L1386.11 67.1833L1383.36 68.7012C1388.95 68.38 1394.76 68.5836 1399.9 69.2812L1406.71 67.2327L1414.73 70.1574C1419.4 68.6889 1423.81 67.1586 1428.17 65.6037L1440.09 65.9122V80.6347H0V69.6144L18.24 67.5905C17.9782 68.3556 17.4982 69.8983 17.2364 70.6634L32.4218 70.7251C34.9091 69.491 37.4836 68.2569 40.0582 67.0229C42.9382 68.0471 45.8182 69.0714 48.7855 70.0834C53.1491 68.7382 57.5127 67.3437 61.8764 65.9245C68.3782 65.7024 74.9673 65.4432 81.3382 65.1347C83.5636 62.4568 86.9673 59.8158 86.4436 57.0268C90.8073 56.4961 95.4763 55.9779 100.015 55.4719L101.062 58.8656C107.04 57.8907 112.844 56.8417 118.516 55.8174C119.913 56.4715 122.88 57.7796 124.233 58.4337C135.445 57.7468 146.435 56.7973 157.091 55.5953C156.622 53.6209 155.152 51.6759 152.727 49.8198L159.36 49.1781C162.13 51.2716 165.825 53.2578 170.356 55.0893C187.244 52.3003 207.753 50.4615 218.356 45.4881C218.356 46.3397 217.702 48.0551 217.527 48.9066C223.724 48.5981 229.964 48.3512 236.247 48.2031C225.818 50.3134 211.287 48.6597 201.338 51.0415C199.764 51.2312 198.421 51.5476 197.478 51.9513C196.534 52.355 196.031 52.8283 196.031 53.3122C196.031 53.7962 196.534 54.2694 197.478 54.6732C198.421 55.0769 199.764 55.3933 201.338 55.5829C200.989 56.9034 200.684 58.2362 200.335 59.569L210.676 58.7669L209.455 61.4448C223.287 59.7418 232.756 55.583 248.727 55.4719C248.727 54.7314 248.073 53.2505 247.811 52.5101C260.12 51.2716 271.599 49.4523 281.76 47.1295C283.68 49.5977 286.124 52.0658 288.524 54.534C296.073 54.534 303.578 54.6204 311.127 54.6574C310.979 53.812 309.946 52.9982 308.159 52.3192C306.372 51.6402 303.912 51.1268 301.091 50.8441L312.829 49.7828C308.902 46.9567 318.022 46.352 325.309 45.6239C327.447 46.4754 331.811 48.1661 334.036 49.0176C339.855 48.1949 345.527 47.2982 351.055 46.3274C357.12 45.7473 363.142 45.1673 369.251 44.612C369.775 39.9595 387.84 41.7983 398.356 41.6378C391.025 41.8723 383.695 42.0328 376.538 42.2055C377.149 45.9078 388.451 44.4022 395.782 44.5626L396.567 44.9822C391.462 45.118 386.313 45.2537 381.207 45.4141C380.946 47.8132 377.576 50.1014 371.738 51.8437C371.433 51.0169 370.778 49.3755 370.473 48.5487C361.745 48.6104 353.324 48.6598 344.727 48.6721V51.2883L331.636 51.1526C331.855 51.8067 332.378 53.1024 332.596 53.7565L343.025 55.9655L352.364 55.2251C359.956 56.0272 375.971 54.5833 372.044 58.4337H390.938C391.942 54.8548 405.425 55.6446 414.284 55.9655C414.895 54.1144 415.636 52.2633 416.509 50.4368C423.491 50.8934 430.516 51.3377 437.542 51.7696L423.796 52.3003C421.702 53.9169 419.433 55.5459 417.775 57.2366C441.425 57.2366 465.12 56.4591 488.64 57.3477L489.164 53.7812L495.665 57.4094C503.869 55.7804 512.684 54.3982 523.069 54.5586C525.469 55.6323 527.913 56.7059 530.356 57.7673C523.854 57.5821 517.265 57.4217 510.764 57.249C510.764 58.0881 510.764 59.7171 510.764 60.6056C516.174 61.0129 521.585 61.4942 526.909 62.0372H533.498C540.165 61.0837 547.322 60.434 554.705 60.112C554.094 58.2485 553.396 56.4098 552.436 54.534C556.611 53.3707 561.546 52.4485 566.967 51.819C567.185 50.0172 567.491 48.2278 567.884 46.4384C574.036 46.9074 580.276 47.3763 586.342 47.9687L569.542 47.7219C572.771 48.9559 576.218 50.19 579.753 51.4241L595.593 49.8692L583.68 52.0411C587.651 54.2872 592.407 56.4468 595.942 58.7545C606.242 57.5049 617.648 57.1776 628.625 57.8166C631.069 56.2493 633.513 56.5826 635.302 58.483L654.545 58.5694L655.113 56.6196L664.887 57.1626C671.127 56.3111 677.629 55.5953 684.087 54.8548C684.48 55.7557 685.309 57.5574 685.702 58.446L696.174 59.4826C695.476 60.4822 694.036 62.4814 693.294 63.481H711.273C711.273 62.7529 710.749 61.3091 710.531 60.5933L726.327 61.8274L734.182 58.8286C733.047 61.0376 731.476 63.2219 729.818 65.3939C734.793 64.4313 739.636 63.407 744.349 62.321L754.604 62.0001C754.604 61.0376 754.604 59.1371 754.865 58.1745L748.014 59.4086L749.367 57.94L733.964 55.5336L750.851 56.7677L750.502 54.9042L736.058 54.497C740.284 53.5957 745.109 52.9453 750.246 52.5848C755.383 52.2243 760.724 52.1611 765.949 52.399C769.004 50.2764 763.636 48.6104 758.749 47.1912C766.036 48.2402 772.844 49.5359 780.044 50.6589C775.953 50.9546 772.363 51.6489 769.904 52.6195C767.446 53.5902 766.277 54.7751 766.604 55.9655C774.764 55.8544 782.967 55.7063 791.215 55.6817C796.407 59.1618 804.96 55.5582 811.505 54.8301C810.633 53.6948 809.891 52.5595 809.28 51.4241C819.701 52.4036 829.902 53.5617 839.825 54.8919C846.866 53.803 852.858 52.244 857.28 50.3504C869.498 47.6231 881.411 44.7477 892.844 41.7119L881.804 41.391C885.949 40.774 890.094 40.1569 894.284 39.5522C894.284 38.7871 893.934 37.2692 893.847 36.5164C901.44 35.6525 909.033 34.7887 916.713 33.9742L916.887 33.9618Z" fill="#FF9600"/>
<path d="M845.585 33.9743C852.243 32.5103 859.585 31.3142 867.404 30.4202L869.629 32.259C861.906 33.0914 853.866 33.667 845.673 33.9743H845.585Z" fill="#FF9600"/>
<path d="M1016.03 34.0976C1029.47 33.4188 1040.81 31.1604 1053.25 29.6919C1052.81 31.8392 1052.07 33.9741 1052.2 36.1214L1047.14 36.3929C1047.14 35.6895 1047.14 34.2827 1047.14 33.5792C1035.58 32.9992 1025.89 35.2823 1030.08 38.676H1024.36C1024.67 38.059 1025.24 36.8125 1025.54 36.2078C1016.81 36.3312 1008.09 36.4176 999.36 36.3066C1004.22 35.2156 1009.91 34.4593 1015.99 34.0976H1016.03Z" fill="#FF9600"/>
<path d="M297.513 31.2963C296.553 35.4428 310.604 29.692 297.513 31.2963V31.2963Z" fill="#FF9600"/>
<path d="M374.051 35.7882C373.571 34.1839 372.087 31.2838 379.811 30.9136C390.807 31.5923 380.771 35.5784 374.051 35.7882Z" fill="#FF9600"/>
<path d="M318.895 37.7011C308.247 38.207 304.058 34.4678 315.011 33.678L323.738 37.1704L321.076 38.8611C328.713 39.1202 338.531 38.8611 337.44 35.9981C347.127 35.1589 356.945 34.4678 366.676 33.678C363.055 34.9121 359.433 36.2449 356.073 37.5777L347.345 37.8985C338.618 39.873 326.967 39.5398 316.8 40.3667L319.287 37.7134L318.895 37.7011Z" fill="#FF9600"/>
<path d="M1279.07 35.9363C1280.68 34.4184 1284.26 34.1839 1289.85 35.2328C1288.1 36.7384 1284.52 36.9729 1279.07 35.9363Z" fill="#FF9600"/>
<path d="M223.025 38.4909C221.542 36.8866 230.749 35.7266 235.069 36.4547C236.378 37.985 227.302 39.2314 223.025 38.4909Z" fill="#FF9600"/>
<path d="M467.738 36.4053L470.662 36.43L470.618 37.2444H467.695L467.738 36.4053Z" fill="#FF9600"/>
<path d="M694.298 36.3437C696.175 40.4039 706.691 34.1471 694.298 36.3437V36.3437Z" fill="#FF9600"/>
<path d="M847.025 38.2563C854.487 38.2563 857.891 39.367 856.102 41.502C863.956 40.959 870.24 39.4658 877.615 38.5772C874.473 43.0322 856.975 43.9208 845.149 45.9077C845.978 43.3655 846.545 40.8109 847.025 38.2563Z" fill="#FF9600"/>
<path d="M190.211 45.3647C193.135 43.4149 195.622 40.8973 204.48 40.6382C201.469 43.1063 200.378 45.9324 193.833 47.9686C187.898 47.8946 180.742 48.1784 176.64 46.6111L190.211 45.377V45.3647Z" fill="#FF9600"/>
<path d="M406.298 41.3293C418.691 42.6375 432.48 42.2919 444.611 43.6124L455.782 42.9707C454.996 43.9333 454.211 44.8959 453.469 45.8584L438.502 46.8704C437.07 45.5426 435.395 44.2368 433.484 42.9583C423.84 43.2545 413.847 43.2545 406.298 41.3293Z" fill="#FF9600"/>
<path d="M1201.27 43.4026C1206.11 42.6991 1211.13 42.0697 1216.06 41.4033L1211.69 44.797H1225.79L1226.66 47.3763L1207.46 47.2899C1208.73 48.4006 1210.04 49.4989 1211.43 50.5972L1198.6 51.0415C1204.54 47.4133 1191.93 45.3277 1180.63 46.4631C1174.92 47.2181 1168.73 47.6379 1162.43 47.6971C1166.79 45.9201 1172.07 44.4145 1180.15 44.3528C1186.43 42.9583 1193.54 42.1561 1201.09 43.4149L1201.27 43.4026Z" fill="#FF9600"/>
<path d="M341.411 42.6128C346.516 41.5021 349.571 41.7612 350.575 43.3779C345.382 44.5256 342.371 44.2788 341.411 42.6128Z" fill="#FF9600"/>
<path d="M583.331 45.266C585.687 43.4642 596.204 44.5009 600.393 45.3524L600.131 45.7843C595.418 46.6605 586.342 46.9197 583.331 45.266Z" fill="#FF9600"/>
<path d="M157.527 46.6482C157.178 44.8218 168.131 43.7111 173.018 44.7477C173.018 46.6359 162.502 47.0308 157.527 46.6482Z" fill="#FF9600"/>
<path d="M603.229 47.4134C609.818 47.0185 617.498 48.0921 622.909 49.1164C620.989 51.3994 600.305 49.7828 603.229 47.4134Z" fill="#FF9600"/>
<path d="M809.367 47.4503C810.414 51.4364 822.458 45.5251 809.367 47.4503V47.4503Z" fill="#FF9600"/>
<path d="M1160.38 51.7448C1163.83 49.5852 1172.68 49.9184 1179.62 49.832C1176.44 52.2385 1167.32 51.6338 1160.38 51.7448Z" fill="#FF9600"/>
<path d="M1217.06 51.8313C1220.5 51.1622 1224.58 50.804 1228.76 50.804C1232.93 50.804 1237.01 51.1622 1240.45 51.8313C1236.81 52.3368 1232.81 52.5996 1228.76 52.5996C1224.7 52.5996 1220.7 52.3368 1217.06 51.8313Z" fill="#FF9600"/>
<path d="M697.396 52.2509H702.545V54.028C710.146 54.3546 717.678 54.7995 725.105 55.3607C717.68 56.0028 709.863 56.2004 702.153 55.9408C700.538 54.7067 698.967 53.4726 697.396 52.2385V52.2509Z" fill="#FF9600"/>
<path d="M1185.47 57.1256C1185.08 53.1888 1199.61 57.6068 1198.3 59.2852C1196.18 59.4123 1193.98 59.3712 1191.94 59.1665C1189.9 58.9618 1188.1 58.6013 1186.73 58.1252L1185.47 57.1256Z" fill="#FF9600"/>
<path d="M1269.82 57.4463C1289.72 54.756 1308.52 58.5323 1327.9 59.4826C1319.17 62.4567 1303.81 60.6302 1293.95 59.0753C1285.79 58.6434 1277.76 58.088 1269.82 57.4463Z" fill="#FF9600"/>
<path d="M1362.5 57.1503C1371.8 57.0639 1382.44 57.0022 1389.56 59.0014C1380.22 59.0014 1369.66 59.2359 1362.5 57.1503Z" fill="#FF9600"/>
</g>
<defs>
<clipPath id="clip0_10_117">
<rect width="1440" height="80.6347" fill="white"/>
</clipPath>
</defs>
</svg>
